<?xml version="1.0" encoding="utf-8"?>
<!-- Generator: Adobe Illustrator 23.0.1, SVG Export Plug-In . SVG Version: 6.00 Build 0)  -->
<svg version="1.1" id="Layer_1" xmlns="http://www.w3.org/2000/svg" xmlns:xlink="http://www.w3.org/1999/xlink" x="0px" y="0px"
	 viewBox="0 0 425.19 130.71" style="enable-background:new 0 0 425.19 130.71;" xml:space="preserve">
<style type="text/css">
	.st0{fill:#D81919;}
	.st1{fill:#FFFFFF;}
</style>
<g>
	<g>
		<rect class="st0" width="425.19" height="130.71"/>
		<g>
			<path class="st1" d="M84.22,102.76V63.38l-12.53,27.7H60.74L48.2,63.38v39.39H27.67V27.99H50.1l16.11,35.17l16.22-35.17h22.33
				v74.77H84.22z"/>
			<path class="st1" d="M151.3,103.4c-5.69,0-10.85-1.09-15.48-3.26c-4.63-2.18-8.6-5.04-11.9-8.58c-3.3-3.54-5.86-7.6-7.69-12.16
				c-1.83-4.56-2.74-9.27-2.74-14.11c0-4.91,0.95-9.65,2.84-14.22c1.9-4.56,4.54-8.58,7.95-12.06c3.4-3.48,7.44-6.25,12.11-8.32
				c4.67-2.07,9.78-3.11,15.32-3.11c5.69,0,10.85,1.09,15.48,3.26c4.63,2.18,8.6,5.06,11.9,8.64c3.3,3.58,5.85,7.65,7.64,12.22
				c1.79,4.56,2.69,9.23,2.69,14.01c0,4.92-0.95,9.64-2.84,14.17c-1.9,4.53-4.53,8.53-7.9,12.01c-3.37,3.47-7.39,6.27-12.06,8.37
				C161.96,102.34,156.85,103.4,151.3,103.4z M134.35,65.48c0,2.53,0.35,4.97,1.05,7.32c0.7,2.35,1.75,4.44,3.16,6.27
				c1.4,1.83,3.18,3.3,5.32,4.42c2.14,1.12,4.69,1.69,7.64,1.69s5.51-0.58,7.69-1.74c2.18-1.16,3.95-2.67,5.32-4.53
				c1.37-1.86,2.39-3.98,3.05-6.37c0.67-2.39,1-4.81,1-7.27c0-2.53-0.35-4.97-1.05-7.32c-0.7-2.35-1.77-4.42-3.21-6.21
				c-1.44-1.79-3.23-3.23-5.37-4.32c-2.14-1.09-4.65-1.63-7.53-1.63c-2.95,0-5.49,0.56-7.64,1.68c-2.14,1.12-3.91,2.62-5.32,4.48
				c-1.41,1.86-2.44,3.97-3.11,6.32C134.68,60.62,134.35,63.03,134.35,65.48z"/>
			<path class="st1" d="M257.25,45.9h-21.48v56.87h-20.54V45.9h-21.59v-17.9h63.61V45.9z"/>
			<path class="st1" d="M320.01,84.86v17.9h-53.29V27.99h52.34v17.9h-31.8v10.53h27.17v16.64h-27.17v11.79H320.01z"/>
			<path class="st1" d="M348.23,27.99l13.59,23.59l13.58-23.59h22.12L372.56,65.9l24.12,36.86h-22.12l-12.74-22.54l-12.74,22.54
				h-22.22l24.12-36.86l-24.96-37.91H348.23z"/>
		</g>
	</g>
</g>
</svg>
